<?xml version="1.0" encoding="iso-8859-1"?>
<!-- Generator: Adobe Illustrator 19.0.0, SVG Export Plug-In . SVG Version: 6.00 Build 0)  -->
<svg version="1.1" id="Capa_1" xmlns="http://www.w3.org/2000/svg" xmlns:xlink="http://www.w3.org/1999/xlink" x="0px" y="0px"
	 viewBox="0 0 322.8 322.8" style="enable-background:new 0 0 322.8 322.8;" xml:space="preserve">
<path style="fill:#DEF3F9;" d="M267.4,31.6h9.2c14.4,0,26,11.6,26,26v232.8c0,14.4-11.6,26-26,26H46.2c-14.4,0-26-11.6-26-26V58
	c0-14.4,11.6-26,26-26h9.2h212V31.6z"/>
<g>
	<path style="fill:#76BDD3;" d="M276.6,31.6h-9.2h-212h-9.2c-14.4,0-26,11.6-26,26v39.6h282V58C302.6,43.6,291,31.6,276.6,31.6z"/>
	<path style="fill:#76BDD3;" d="M83.8,43.6c0,8-6.4,14.4-14.4,14.4l0,0c-8,0-14.4-6.4-14.4-14.4V32.4V20c0-8,6.4-14.4,14.4-14.4l0,0
		c8,0,14.4,6.4,14.4,14.4V43.6z"/>
	<path style="fill:#76BDD3;" d="M267.4,43.6c0,8-6.4,14.4-14.4,14.4l0,0c-8,0-14.4-6.4-14.4-14.4V20c0-8,6.4-14.4,14.4-14.4l0,0
		c8,0,14.4,6.4,14.4,14.4V43.6z"/>
</g>
<g>
	<path style="fill:#427C7F;" d="M69.8,0c-10.8,0-20,8.8-20,20v6h-3.6C29,26,14.6,40.4,14.6,58v232.8c0,17.6,14,32,31.6,32h230.4
		c17.2,0,31.6-14.4,31.6-32V58c0-17.6-14-32-31.6-32H273v-6c0-11.2-8.8-20-20-20c-10.8,0-20,8.8-20,20v6H89.4v-6
		C89.4,8.8,80.6,0,69.8,0z M69.8,11.2c4.8,0,8.8,4,8.8,8.8v23.6c0,4.8-4,8.8-8.8,8.8s-8.8-4-8.8-8.8V32l0,0l0,0V20.4
		C61,15.2,65,11.2,69.8,11.2z M276.6,311.2H46.2c-11.2,0-20.4-9.2-20.4-20.4v-188h270.8v188C297,302,287.8,311.2,276.6,311.2z
		 M253,11.2c4.8,0,8.8,4,8.8,8.8v23.6c0,4.8-4,8.8-8.8,8.8c-4.8,0-8.8-4-8.8-8.8V32l0,0l0,0V20.4C244.6,15.2,248.2,11.2,253,11.2z
		 M233.4,37.2v6c0,11.2,8.8,20,20,20c10.8,0,20-8.8,20-20v-6h3.6c11.2,0,20.4,9.2,20.4,20.4v33.6H25.8V57.6
		c0-11.2,9.2-20.4,20.4-20.4h3.6v6c0,11.2,8.8,20,20,20c10.8,0,20-8.8,20-20v-6H233.4z"/>
	<path style="fill:#427C7F;" d="M53.4,164.8H81c3.2,0,5.6-2.4,5.6-5.6c0-3.2-2.4-5.6-5.6-5.6H53.4c-3.2,0-5.6,2.4-5.6,5.6
		C47.8,162,50.2,164.8,53.4,164.8z"/>
	<path style="fill:#427C7F;" d="M99.4,164.8H127c3.2,0,5.6-2.4,5.6-5.6c0-3.2-2.4-5.6-5.6-5.6H99.4c-3.2,0-5.6,2.4-5.6,5.6
		C93.8,162,96.2,164.8,99.4,164.8z"/>
	<path style="fill:#427C7F;" d="M145,164.8h27.6c3.2,0,5.6-2.4,5.6-5.6c0-3.2-2.4-5.6-5.6-5.6H145c-3.2,0-5.6,2.4-5.6,5.6
		C139.4,162,142.2,164.8,145,164.8z"/>
	<path style="fill:#427C7F;" d="M191,164.8h27.6c3.2,0,5.6-2.4,5.6-5.6c0-3.2-2.4-5.6-5.6-5.6H191c-3.2,0-5.6,2.4-5.6,5.6
		C185.4,162,187.8,164.8,191,164.8z"/>
	<path style="fill:#427C7F;" d="M236.6,164.8h27.6c3.2,0,5.6-2.4,5.6-5.6c0-3.2-2.4-5.6-5.6-5.6h-27.6c-3.2,0-5.6,2.4-5.6,5.6
		C231.4,162,233.8,164.8,236.6,164.8z"/>
	<path style="fill:#427C7F;" d="M82.6,184.8H55c-3.2,0-5.6,2.4-5.6,5.6s2.4,5.6,5.6,5.6h27.6c3.2,0,5.6-2.4,5.6-5.6
		S85.4,184.8,82.6,184.8z"/>
	<path style="fill:#427C7F;" d="M128.2,184.8h-27.6c-3.2,0-5.6,2.4-5.6,5.6s2.4,5.6,5.6,5.6h27.6c3.2,0,5.6-2.4,5.6-5.6
		C133.8,187.2,131.4,184.8,128.2,184.8z"/>
	<path style="fill:#427C7F;" d="M174.2,184.8h-27.6c-3.2,0-5.6,2.4-5.6,5.6s2.4,5.6,5.6,5.6h27.6c3.2,0,5.6-2.4,5.6-5.6
		S177.4,184.8,174.2,184.8z"/>
	<path style="fill:#427C7F;" d="M219.8,184.8h-27.6c-3.2,0-5.6,2.4-5.6,5.6s2.4,5.6,5.6,5.6h27.6c3.2,0,5.6-2.4,5.6-5.6
		S223,184.8,219.8,184.8z"/>
	<path style="fill:#427C7F;" d="M265.8,184.8h-27.6c-3.2,0-5.6,2.4-5.6,5.6s2.4,5.6,5.6,5.6h27.6c3.2,0,5.6-2.4,5.6-5.6
		S269,184.8,265.8,184.8z"/>
	<path style="fill:#427C7F;" d="M78.2,247.6H50.6c-3.2,0-5.6,2.4-5.6,5.6c0,3.2,2.4,5.6,5.6,5.6h27.6c3.2,0,5.6-2.4,5.6-5.6
		C83.8,250,81.4,247.6,78.2,247.6z"/>
	<path style="fill:#427C7F;" d="M124.2,247.6H96.6c-3.2,0-5.6,2.4-5.6,5.6c0,3.2,2.4,5.6,5.6,5.6h27.6c3.2,0,5.6-2.4,5.6-5.6
		C129.8,250,127,247.6,124.2,247.6z"/>
	<path style="fill:#427C7F;" d="M169.8,247.6h-27.6c-3.2,0-5.6,2.4-5.6,5.6c0,3.2,2.4,5.6,5.6,5.6h27.6c3.2,0,5.6-2.4,5.6-5.6
		C175.4,250,173,247.6,169.8,247.6z"/>
	<path style="fill:#427C7F;" d="M78.2,216.4H50.6c-3.2,0-5.6,2.4-5.6,5.6s2.4,5.6,5.6,5.6h27.6c3.2,0,5.6-2.4,5.6-5.6
		C83.8,218.8,81.4,216.4,78.2,216.4z"/>
	<path style="fill:#427C7F;" d="M124.2,216.4H96.6c-3.2,0-5.6,2.4-5.6,5.6s2.4,5.6,5.6,5.6h27.6c3.2,0,5.6-2.4,5.6-5.6
		C129.8,218.8,127,216.4,124.2,216.4z"/>
	<path style="fill:#427C7F;" d="M169.8,216.4h-27.6c-3.2,0-5.6,2.4-5.6,5.6s2.4,5.6,5.6,5.6h27.6c3.2,0,5.6-2.4,5.6-5.6
		S173,216.4,169.8,216.4z"/>
	<path style="fill:#427C7F;" d="M215.8,216.4h-27.6c-3.2,0-5.6,2.4-5.6,5.6s2.4,5.6,5.6,5.6h27.6c3.2,0,5.6-2.4,5.6-5.6
		S219,216.4,215.8,216.4z"/>
	<path style="fill:#427C7F;" d="M261.4,216.4h-27.6c-3.2,0-5.6,2.4-5.6,5.6s2.4,5.6,5.6,5.6h27.6c3.2,0,5.6-2.4,5.6-5.6
		S264.6,216.4,261.4,216.4z"/>
</g>
<g>
</g>
<g>
</g>
<g>
</g>
<g>
</g>
<g>
</g>
<g>
</g>
<g>
</g>
<g>
</g>
<g>
</g>
<g>
</g>
<g>
</g>
<g>
</g>
<g>
</g>
<g>
</g>
<g>
</g>
</svg>
